<svg width="80" height="80" viewBox="0 0 80 80" fill="none" xmlns="http://www.w3.org/2000/svg">
  <defs>
    <linearGradient id="cmGradient" x1="0" y1="0" x2="80" y2="80" gradientUnits="userSpaceOnUse">
      <stop offset="0%" stop-color="#5B5F97" />
      <stop offset="50%" stop-color="#60C3D1" />
      <stop offset="100%" stop-color="#F9A03F" />
    </linearGradient>
    <filter id="shadow" x="0" y="0" width="120" height="120" filterUnits="userSpaceOnUse">
      <feGaussianBlur in="SourceAlpha" stdDeviation="3" />
      <feOffset dy="3" />
      <feComponentTransfer>
        <feFuncA type="linear" slope="0.3" />
      </feComponentTransfer>
      <feMerge>
        <feMergeNode />
        <feMergeNode in="SourceGraphic" />
      </feMerge>
    </filter>
  </defs>
  <g filter="url(#shadow)">
    <rect x="10" y="10" width="60" height="60" rx="16" fill="url(#cmGradient)" />
    <path d="M46 24c0 3.05-1.03 5.55-2.7 7.41 3.82 1.36 6.7 4.98 6.7 9.09 0 6.3-5.47 11.5-12 11.5-1.96 0-3.8-.45-5.42-1.24-1.63 1.6-2.64 4.03-2.64 7.24h-8.44c0-5.95 1.98-10.62 5.06-13.88-1.58-1.82-2.56-4.19-2.56-6.87 0-5.87 4.34-10.74 9.94-11.39.88-2.57 2.81-4.86 5.94-6.28l4.12-1.86V24z" fill="#fff"/>
    <path d="M28 56h24v6H28z" fill="#fff" opacity="0.8" />
  </g>
</svg>
